<svg width="683" height="137" viewBox="0 0 683 137" fill="none" xmlns="http://www.w3.org/2000/svg">
<path d="M150.144 48.022C149.803 48.022 149.525 47.9366 149.312 47.766C149.141 47.5526 149.056 47.2966 149.056 46.998V1.74997C149.056 1.36597 149.163 1.0673 149.376 0.85397C149.589 0.640636 149.867 0.53397 150.208 0.53397H166.656C172.715 0.53397 177.365 1.60064 180.608 3.73397C183.851 5.82464 185.472 8.89664 185.472 12.95C185.472 15.382 184.832 17.43 183.552 19.094C182.272 20.758 180.117 22.2086 177.088 23.446C176.96 23.4886 176.896 23.574 176.896 23.702C176.896 23.83 176.96 23.9153 177.088 23.958C180.331 24.9393 182.72 26.326 184.256 28.118C185.835 29.91 186.624 32.278 186.624 35.222C186.624 39.5313 184.981 42.7526 181.696 44.886C178.453 46.9766 173.675 48.022 167.36 48.022H150.144ZM167.04 41.494C170.325 41.494 172.757 40.8966 174.336 39.702C175.957 38.4646 176.768 36.7366 176.768 34.518C176.768 32.8966 176.363 31.5526 175.552 30.486C174.784 29.4193 173.696 28.63 172.288 28.118C170.923 27.606 169.365 27.35 167.616 27.35H159.68C158.912 27.35 158.528 27.6913 158.528 28.374V40.406C158.528 41.1313 158.805 41.494 159.36 41.494H167.04ZM167.616 20.694C168.683 20.694 169.707 20.5873 170.688 20.374C171.712 20.118 172.608 19.7126 173.376 19.158C174.187 18.6033 174.827 17.9206 175.296 17.11C175.808 16.2566 176.064 15.2326 176.064 14.038C176.064 11.734 175.211 10.006 173.504 8.85397C171.84 7.6593 169.643 7.06197 166.912 7.06197H159.616C158.891 7.06197 158.528 7.38197 158.528 8.02197V19.606C158.528 20.3313 158.805 20.694 159.36 20.694H167.616Z" fill="#F9EDD9"/>
<path d="M205.622 42.582C207.115 42.582 208.523 42.1766 209.846 41.366C211.211 40.5553 212.513 39.4886 213.75 38.166V15.382C213.75 14.5286 214.241 14.102 215.222 14.102H220.982C221.75 14.102 222.134 14.5073 222.134 15.318L222.006 46.998C222.006 47.6806 221.707 48.022 221.11 48.022H214.838C214.241 48.022 213.942 47.702 213.942 47.062V43.67C213.942 43.4566 213.878 43.3286 213.75 43.286C213.665 43.2006 213.515 43.2646 213.302 43.478C211.297 45.3553 209.398 46.6993 207.606 47.51C205.814 48.278 203.958 48.662 202.038 48.662C200.118 48.662 198.411 48.2566 196.918 47.446C195.425 46.6353 194.251 45.462 193.398 43.926C192.545 42.39 192.118 40.598 192.118 38.55V15.446C192.118 14.55 192.566 14.102 193.462 14.102H199.35C200.075 14.102 200.438 14.5073 200.438 15.318V37.142C200.438 38.7633 200.886 40.086 201.782 41.11C202.721 42.0913 204.001 42.582 205.622 42.582Z" fill="#F9EDD9"/>
<path d="M229.999 48.022C229.572 48.022 229.274 47.9366 229.103 47.766C228.932 47.5526 228.847 47.254 228.847 46.87V15.19C228.847 14.4646 229.146 14.102 229.743 14.102H235.951C236.548 14.102 236.847 14.422 236.847 15.062V18.966C236.847 19.222 236.932 19.3926 237.103 19.478C237.274 19.5206 237.466 19.414 237.679 19.158C238.618 17.9206 239.62 16.8966 240.687 16.086C241.796 15.2326 242.906 14.5926 244.015 14.166C245.167 13.6966 246.276 13.462 247.343 13.462C248.879 13.462 249.647 13.8033 249.647 14.486V20.63C249.647 21.2273 249.37 21.4833 248.815 21.398C248.175 21.2273 247.492 21.1206 246.767 21.078C246.084 20.9926 245.444 20.95 244.847 20.95C244.036 20.95 243.162 21.1206 242.223 21.462C241.327 21.8033 240.495 22.294 239.727 22.934C238.959 23.5313 238.34 24.1926 237.871 24.918C237.402 25.6433 237.167 26.39 237.167 27.158V46.742C237.167 47.5953 236.676 48.022 235.695 48.022H229.999Z" fill="#F9EDD9"/>
<path d="M259.792 33.686C259.792 35.4353 260.197 37.014 261.008 38.422C261.818 39.7873 262.928 40.8753 264.336 41.686C265.786 42.454 267.365 42.838 269.072 42.838C270.821 42.838 272.4 42.4753 273.807 41.75C275.258 41.0246 276.624 39.8513 277.904 38.23C278.074 38.0166 278.224 37.91 278.352 37.91C278.479 37.8673 278.693 37.9313 278.992 38.102L282.896 39.83C283.45 40.086 283.514 40.47 283.087 40.982C281.807 42.8593 280.421 44.374 278.927 45.526C277.477 46.6353 275.855 47.446 274.064 47.958C272.314 48.4273 270.33 48.662 268.112 48.662C264.869 48.662 261.967 47.9366 259.408 46.486C256.848 45.0353 254.821 43.03 253.327 40.47C251.877 37.8673 251.152 34.8806 251.152 31.51C251.152 27.798 251.898 24.598 253.392 21.91C254.928 19.222 256.975 17.1526 259.535 15.702C262.095 14.2086 264.912 13.462 267.984 13.462C271.226 13.462 274.042 14.166 276.432 15.574C278.864 16.982 280.762 19.0086 282.128 21.654C283.493 24.2566 284.176 27.4353 284.176 31.19C284.176 31.6166 284.133 31.958 284.048 32.214C284.005 32.47 283.706 32.6193 283.151 32.662H260.496C260.24 32.662 260.047 32.7473 259.919 32.918C259.834 33.0886 259.792 33.3446 259.792 33.686ZM274.96 27.926C275.386 27.926 275.664 27.8833 275.792 27.798C275.962 27.67 276.048 27.414 276.048 27.03C276.048 25.7073 275.749 24.406 275.151 23.126C274.554 21.846 273.68 20.8006 272.527 19.99C271.375 19.1366 269.967 18.71 268.303 18.71C266.597 18.71 265.104 19.1366 263.824 19.99C262.544 20.8006 261.562 21.91 260.88 23.318C260.24 24.6833 259.919 26.2193 259.919 27.926H274.96Z" fill="#F9EDD9"/>
<path d="M307.663 44.502C306.255 45.782 304.676 46.806 302.927 47.574C301.22 48.2993 299.279 48.662 297.103 48.662C293.86 48.662 291.3 47.8086 289.423 46.102C287.545 44.3526 286.607 42.0913 286.607 39.318C286.607 36.9713 287.311 34.9446 288.719 33.238C290.126 31.4886 292.175 30.1233 294.863 29.142C297.551 28.1606 300.793 27.5846 304.591 27.414L307.79 27.222C308.004 27.1793 308.217 27.094 308.431 26.966C308.687 26.838 308.815 26.6033 308.815 26.262V24.79C308.815 22.9126 308.26 21.462 307.151 20.438C306.041 19.3713 304.484 18.838 302.479 18.838C301.028 18.838 299.641 19.1793 298.319 19.862C297.039 20.502 295.929 21.5686 294.991 23.062C294.82 23.318 294.649 23.4886 294.479 23.574C294.351 23.6593 294.095 23.6593 293.711 23.574L288.335 22.23C288.121 22.1446 287.972 22.0166 287.887 21.846C287.801 21.6753 287.865 21.334 288.078 20.822C289.23 18.39 291.065 16.5553 293.583 15.318C296.1 14.0806 299.193 13.462 302.863 13.462C306.148 13.462 308.815 13.91 310.863 14.806C312.911 15.702 314.404 16.9606 315.342 18.582C316.281 20.1606 316.751 22.038 316.751 24.214V46.742C316.751 47.2113 316.665 47.5526 316.495 47.766C316.367 47.9366 316.089 48.022 315.663 48.022H310.223C309.839 48.022 309.54 47.8726 309.327 47.574C309.156 47.2753 309.049 46.9126 309.007 46.486L308.943 44.566C308.815 43.8406 308.388 43.8193 307.663 44.502ZM308.815 32.534C308.815 31.766 308.495 31.4033 307.854 31.446L305.23 31.638C303.823 31.7233 302.479 31.9366 301.199 32.278C299.961 32.5766 298.852 33.0033 297.871 33.558C296.932 34.07 296.185 34.7313 295.63 35.542C295.076 36.31 294.798 37.2273 294.798 38.294C294.798 39.7446 295.311 40.8966 296.335 41.75C297.358 42.6033 298.767 43.03 300.559 43.03C301.753 43.03 302.841 42.838 303.823 42.454C304.804 42.07 305.657 41.5793 306.383 40.982C307.108 40.3846 307.684 39.766 308.111 39.126C308.58 38.4433 308.815 37.7606 308.815 37.078V32.534Z" fill="#F9EDD9"/>
<path d="M336.502 42.582C337.995 42.582 339.403 42.1766 340.726 41.366C342.091 40.5553 343.393 39.4886 344.63 38.166V15.382C344.63 14.5286 345.121 14.102 346.102 14.102H351.862C352.63 14.102 353.014 14.5073 353.014 15.318L352.886 46.998C352.886 47.6806 352.587 48.022 351.99 48.022H345.718C345.121 48.022 344.822 47.702 344.822 47.062V43.67C344.822 43.4566 344.758 43.3286 344.63 43.286C344.545 43.2006 344.395 43.2646 344.182 43.478C342.177 45.3553 340.278 46.6993 338.486 47.51C336.694 48.278 334.838 48.662 332.918 48.662C330.998 48.662 329.291 48.2566 327.798 47.446C326.305 46.6353 325.131 45.462 324.278 43.926C323.425 42.39 322.998 40.598 322.998 38.55V15.446C322.998 14.55 323.446 14.102 324.342 14.102H330.23C330.955 14.102 331.318 14.5073 331.318 15.318V37.142C331.318 38.7633 331.766 40.086 332.662 41.11C333.601 42.0913 334.881 42.582 336.502 42.582Z" fill="#F9EDD9"/>
<path d="M386.926 48.662C383.598 48.662 380.675 47.9153 378.158 46.422C375.641 44.9286 373.657 42.8806 372.206 40.278C370.798 37.6326 370.094 34.6246 370.094 31.254C370.094 27.7126 370.819 24.6193 372.27 21.974C373.763 19.286 375.769 17.1953 378.286 15.702C380.846 14.2086 383.747 13.462 386.99 13.462C390.361 13.462 393.305 14.23 395.822 15.766C398.339 17.2593 400.302 19.35 401.71 22.038C403.118 24.6833 403.822 27.734 403.822 31.19C403.822 34.6033 403.097 37.6326 401.646 40.278C400.238 42.8806 398.275 44.9286 395.758 46.422C393.241 47.9153 390.297 48.662 386.926 48.662ZM386.99 42.966C388.825 42.966 390.361 42.518 391.598 41.622C392.835 40.6833 393.774 39.3393 394.414 37.59C395.054 35.798 395.374 33.622 395.374 31.062C395.374 28.4593 395.033 26.262 394.35 24.47C393.71 22.678 392.771 21.3126 391.534 20.374C390.297 19.4353 388.782 18.966 386.99 18.966C385.241 18.966 383.726 19.4353 382.446 20.374C381.166 21.3126 380.185 22.678 379.502 24.47C378.862 26.262 378.542 28.4593 378.542 31.062C378.542 33.622 378.862 35.798 379.502 37.59C380.185 39.3393 381.166 40.6833 382.446 41.622C383.726 42.518 385.241 42.966 386.99 42.966Z" fill="#F9EDD9"/>
<path d="M427.671 14.102C428.012 14.102 428.268 14.2086 428.439 14.422C428.609 14.5926 428.695 14.806 428.695 15.062V19.094C428.695 19.6486 428.375 19.926 427.734 19.926H421.783C421.356 19.926 421.143 20.1393 421.143 20.566V46.934C421.143 47.6593 420.823 48.022 420.182 48.022H413.719C413.121 48.022 412.823 47.6806 412.823 46.998V20.502C412.823 20.118 412.673 19.926 412.375 19.926H407.191C406.551 19.926 406.23 19.6486 406.23 19.094V15.062C406.23 14.806 406.295 14.5926 406.423 14.422C406.593 14.2086 406.871 14.102 407.255 14.102H412.118C412.588 14.102 412.823 13.8246 412.823 13.27V9.10997C412.823 6.3793 413.569 4.2673 415.062 2.77397C416.599 1.28064 418.796 0.53397 421.655 0.53397H427.734C428.545 0.53397 428.951 0.91797 428.951 1.68597L429.015 5.26997C429.015 5.52597 428.929 5.7393 428.759 5.90997C428.631 6.08064 428.417 6.16597 428.118 6.16597H424.342C423.233 6.16597 422.38 6.54997 421.783 7.31797C421.228 8.08597 420.951 9.0673 420.951 10.262V13.462C420.951 13.8886 421.185 14.102 421.655 14.102H427.671Z" fill="#F9EDD9"/>
<path d="M147.072 126.022C146.688 126.022 146.411 125.851 146.24 125.51C146.069 125.169 146.069 124.721 146.24 124.166L162.176 79.814C162.347 79.3446 162.539 79.0246 162.752 78.854C162.965 78.6406 163.328 78.534 163.84 78.534H173.44C174.379 78.534 175.019 79.0033 175.36 79.942L191.168 124.294C191.296 124.635 191.296 125.019 191.168 125.446C191.04 125.83 190.784 126.022 190.4 126.022H180.992C180.352 126.022 179.947 125.723 179.776 125.126L176.448 115.782C176.405 115.569 176.32 115.398 176.192 115.27C176.107 115.142 175.915 115.078 175.616 115.078H160C159.573 115.078 159.296 115.291 159.168 115.718L155.776 125.19C155.691 125.446 155.541 125.659 155.328 125.83C155.157 125.958 154.859 126.022 154.432 126.022H147.072ZM172.992 106.566C173.589 106.566 173.781 106.203 173.568 105.478L168.192 90.502C168.064 90.246 167.915 90.118 167.744 90.118C167.616 90.118 167.488 90.2673 167.36 90.566L161.92 105.478C161.621 106.203 161.813 106.566 162.496 106.566H172.992Z" fill="#F9EDD9"/>
<path d="M204.127 92.102C205.066 92.102 205.535 92.5286 205.535 93.382V95.302C205.535 95.558 205.62 95.7073 205.791 95.75C205.962 95.75 206.175 95.6433 206.431 95.43C207.114 94.79 207.86 94.1713 208.671 93.574C209.524 92.9766 210.527 92.486 211.679 92.102C212.831 91.6753 214.196 91.462 215.775 91.462C218.292 91.462 220.532 92.102 222.495 93.382C224.458 94.6193 226.015 96.518 227.167 99.078C228.319 101.595 228.895 104.838 228.895 108.806C228.895 112.902 228.298 116.273 227.103 118.918C225.908 121.563 224.287 123.526 222.239 124.806C220.191 126.043 217.866 126.662 215.263 126.662C213.599 126.662 212.063 126.406 210.655 125.894C209.247 125.382 207.924 124.55 206.687 123.398C206.26 122.971 205.94 122.779 205.727 122.822C205.556 122.865 205.471 123.185 205.471 123.782V135.494C205.471 136.219 205.151 136.582 204.511 136.582H196.639C195.956 136.582 195.615 136.198 195.615 135.43V93.51C195.615 93.0406 195.722 92.6993 195.935 92.486C196.148 92.23 196.532 92.102 197.087 92.102H204.127ZM205.471 117.254C206.324 118.193 207.242 118.961 208.223 119.558C209.204 120.155 210.335 120.454 211.615 120.454C213.108 120.454 214.388 120.07 215.455 119.302C216.564 118.491 217.418 117.233 218.015 115.526C218.612 113.777 218.911 111.473 218.911 108.614C218.911 105.841 218.612 103.665 218.015 102.086C217.418 100.507 216.564 99.3766 215.455 98.694C214.388 98.0113 213.172 97.67 211.807 97.67C210.612 97.67 209.524 97.926 208.543 98.438C207.604 98.9073 206.858 99.5473 206.303 100.358C205.748 101.126 205.471 101.937 205.471 102.79V117.254Z" fill="#F9EDD9"/>
<path d="M241.847 92.102C242.786 92.102 243.255 92.5286 243.255 93.382V95.302C243.255 95.558 243.34 95.7073 243.511 95.75C243.682 95.75 243.895 95.6433 244.151 95.43C244.834 94.79 245.58 94.1713 246.391 93.574C247.244 92.9766 248.247 92.486 249.399 92.102C250.551 91.6753 251.916 91.462 253.495 91.462C256.012 91.462 258.252 92.102 260.215 93.382C262.178 94.6193 263.735 96.518 264.887 99.078C266.039 101.595 266.615 104.838 266.615 108.806C266.615 112.902 266.018 116.273 264.823 118.918C263.628 121.563 262.007 123.526 259.959 124.806C257.911 126.043 255.586 126.662 252.983 126.662C251.319 126.662 249.783 126.406 248.375 125.894C246.967 125.382 245.644 124.55 244.407 123.398C243.98 122.971 243.66 122.779 243.447 122.822C243.276 122.865 243.191 123.185 243.191 123.782V135.494C243.191 136.219 242.871 136.582 242.231 136.582H234.359C233.676 136.582 233.335 136.198 233.335 135.43V93.51C233.335 93.0406 233.442 92.6993 233.655 92.486C233.868 92.23 234.252 92.102 234.807 92.102H241.847ZM243.191 117.254C244.044 118.193 244.962 118.961 245.943 119.558C246.924 120.155 248.055 120.454 249.335 120.454C250.828 120.454 252.108 120.07 253.175 119.302C254.284 118.491 255.138 117.233 255.735 115.526C256.332 113.777 256.631 111.473 256.631 108.614C256.631 105.841 256.332 103.665 255.735 102.086C255.138 100.507 254.284 99.3766 253.175 98.694C252.108 98.0113 250.892 97.67 249.527 97.67C248.332 97.67 247.244 97.926 246.263 98.438C245.324 98.9073 244.578 99.5473 244.023 100.358C243.468 101.126 243.191 101.937 243.191 102.79V117.254Z" fill="#F9EDD9"/>
<path d="M280.975 124.486C280.975 125.041 280.847 125.446 280.591 125.702C280.335 125.915 279.887 126.022 279.247 126.022H272.463C271.524 126.022 271.055 125.574 271.055 124.678L271.151 102.214L271.247 79.75C271.247 78.9393 271.588 78.534 272.271 78.534H280.015C280.655 78.534 280.975 78.918 280.975 79.686V124.486Z" fill="#F9EDD9"/>
<path d="M296.631 124.486C296.631 125.041 296.503 125.446 296.247 125.702C295.991 125.915 295.543 126.022 294.903 126.022H288.183C287.628 126.022 287.244 125.915 287.031 125.702C286.86 125.489 286.775 125.147 286.775 124.678V93.318C286.775 92.5073 287.116 92.102 287.799 92.102H295.671C296.311 92.102 296.631 92.4646 296.631 93.19V124.486ZM296.759 86.406C296.759 87.4726 296.183 88.006 295.031 88.006H288.119C287.564 88.006 287.18 87.878 286.967 87.622C286.796 87.366 286.711 87.0033 286.711 86.534V79.814C286.711 78.9606 287.074 78.534 287.799 78.534H295.735C296.418 78.534 296.759 78.9393 296.759 79.75V86.406Z" fill="#F9EDD9"/>
<path d="M311.073 111.942C311.073 113.521 311.435 114.929 312.161 116.166C312.929 117.361 313.931 118.299 315.169 118.982C316.449 119.622 317.878 119.942 319.457 119.942C320.993 119.942 322.401 119.622 323.681 118.982C325.003 118.299 326.326 117.19 327.648 115.654C327.819 115.483 327.969 115.398 328.096 115.398C328.224 115.355 328.459 115.419 328.801 115.59L333.409 117.51C334.006 117.766 334.07 118.193 333.601 118.79C332.235 120.753 330.806 122.31 329.312 123.462C327.819 124.614 326.155 125.446 324.32 125.958C322.529 126.427 320.502 126.662 318.241 126.662C314.913 126.662 311.947 125.937 309.345 124.486C306.742 123.035 304.673 121.03 303.137 118.47C301.643 115.867 300.897 112.902 300.897 109.574C300.897 105.905 301.664 102.726 303.201 100.038C304.779 97.3073 306.87 95.1953 309.473 93.702C312.075 92.2086 314.934 91.462 318.049 91.462C321.334 91.462 324.214 92.1873 326.689 93.638C329.163 95.046 331.105 97.0726 332.513 99.718C333.963 102.363 334.689 105.585 334.689 109.382C334.689 109.851 334.646 110.214 334.561 110.47C334.475 110.726 334.155 110.875 333.601 110.918H311.841C311.585 110.918 311.392 111.003 311.264 111.174C311.137 111.345 311.073 111.601 311.073 111.942ZM323.937 105.542C324.406 105.542 324.705 105.499 324.833 105.414C324.961 105.286 325.025 105.03 325.025 104.646C325.025 103.579 324.768 102.491 324.257 101.382C323.787 100.273 323.062 99.3553 322.081 98.63C321.142 97.862 319.926 97.478 318.432 97.478C317.025 97.478 315.766 97.8193 314.656 98.502C313.547 99.1846 312.694 100.145 312.096 101.382C311.499 102.577 311.201 103.942 311.201 105.478L323.937 105.542Z" fill="#F9EDD9"/>
<path d="M362.204 126.022C361.863 126.022 361.543 125.937 361.245 125.766C360.988 125.553 360.861 125.211 360.861 124.742V122.95C360.861 122.651 360.775 122.481 360.605 122.438C360.434 122.395 360.221 122.481 359.965 122.694C359.282 123.334 358.514 123.974 357.661 124.614C356.807 125.211 355.805 125.702 354.652 126.086C353.5 126.47 352.157 126.662 350.621 126.662C348.018 126.662 345.714 126.022 343.708 124.742C341.703 123.462 340.125 121.542 338.973 118.982C337.82 116.379 337.245 113.158 337.245 109.318C337.245 105.734 337.863 102.619 339.1 99.974C340.38 97.286 342.087 95.1953 344.221 93.702C346.354 92.2086 348.701 91.462 351.26 91.462C352.967 91.462 354.482 91.7393 355.805 92.294C357.127 92.8486 358.407 93.702 359.645 94.854C359.986 95.11 360.242 95.2166 360.413 95.174C360.626 95.0886 360.733 94.8113 360.733 94.342V79.686C360.733 78.918 361.074 78.534 361.757 78.534H369.565C370.247 78.534 370.589 78.9393 370.589 79.75V124.678C370.589 125.147 370.482 125.489 370.268 125.702C370.055 125.915 369.671 126.022 369.117 126.022H362.204ZM360.733 100.934C359.794 99.91 358.834 99.142 357.853 98.63C356.914 98.0753 355.826 97.798 354.589 97.798C353.181 97.798 351.901 98.2033 350.749 99.014C349.639 99.782 348.765 100.998 348.125 102.662C347.527 104.326 347.229 106.502 347.229 109.19C347.229 111.921 347.527 114.118 348.125 115.782C348.765 117.446 349.618 118.662 350.685 119.43C351.794 120.155 353.053 120.518 354.461 120.518C355.655 120.518 356.722 120.241 357.661 119.686C358.599 119.131 359.346 118.427 359.901 117.574C360.455 116.721 360.733 115.825 360.733 114.886V100.934Z" fill="#F9EDD9"/>
<path d="M416.504 89.734C415.565 88.71 414.392 87.7926 412.984 86.982C411.619 86.1713 409.656 85.766 407.096 85.766C404.408 85.766 402.403 86.2566 401.08 87.238C399.757 88.1766 399.096 89.3926 399.096 90.886C399.096 91.398 399.224 91.9526 399.48 92.55C399.736 93.1473 400.248 93.7233 401.016 94.278C401.784 94.8326 402.872 95.3233 404.28 95.75L414.392 98.63C418.317 99.6966 421.176 101.425 422.968 103.814C424.76 106.161 425.656 108.891 425.656 112.006C425.656 114.993 424.888 117.595 423.352 119.814C421.816 121.99 419.619 123.675 416.76 124.87C413.901 126.065 410.509 126.662 406.584 126.662C403.683 126.662 400.952 126.342 398.392 125.702C395.875 125.019 393.635 124.059 391.672 122.822C389.752 121.542 388.237 120.07 387.128 118.406C386.915 117.979 386.829 117.638 386.872 117.382C386.915 117.083 387.128 116.785 387.512 116.486L392.44 113.094C392.952 112.795 393.357 112.667 393.656 112.71C393.997 112.753 394.296 112.923 394.552 113.222C395.576 114.502 396.579 115.569 397.56 116.422C398.584 117.275 399.757 117.894 401.08 118.278C402.403 118.662 403.981 118.854 405.816 118.854C408.589 118.854 410.808 118.427 412.472 117.574C414.136 116.678 414.968 115.313 414.968 113.478C414.968 112.753 414.797 112.091 414.456 111.494C414.115 110.854 413.56 110.299 412.792 109.83C412.067 109.318 411.021 108.849 409.656 108.422L399.992 105.67C397.475 104.945 395.363 103.921 393.656 102.598C391.949 101.275 390.648 99.718 389.752 97.926C388.899 96.134 388.472 94.2566 388.472 92.294C388.472 89.5633 389.219 87.11 390.712 84.934C392.248 82.758 394.381 81.0513 397.112 79.814C399.885 78.534 403.107 77.894 406.776 77.894C409.208 77.894 411.469 78.1713 413.56 78.726C415.693 79.2806 417.613 80.0486 419.32 81.03C421.027 82.0113 422.413 83.206 423.48 84.614C423.651 84.8273 423.779 85.0833 423.864 85.382C423.949 85.638 423.821 85.9153 423.48 86.214L418.104 90.182C417.848 90.3526 417.613 90.4166 417.4 90.374C417.187 90.2886 416.888 90.0753 416.504 89.734Z" fill="#F9EDD9"/>
<path d="M445.801 91.462C448.574 91.462 450.921 91.9526 452.841 92.934C454.803 93.8726 456.403 95.0886 457.641 96.582C458.878 98.0753 459.753 99.6113 460.265 101.19C460.563 102.043 460.307 102.491 459.497 102.534L452.777 103.174C452.307 103.217 451.987 102.982 451.817 102.47C451.433 101.659 451.006 100.913 450.536 100.23C450.067 99.5473 449.491 98.9926 448.809 98.566C448.126 98.1393 447.23 97.926 446.121 97.926C444.67 97.926 443.39 98.3313 442.281 99.142C441.171 99.9526 440.297 101.19 439.657 102.854C439.059 104.475 438.76 106.545 438.76 109.062C438.76 111.622 439.081 113.734 439.721 115.398C440.361 117.062 441.257 118.299 442.409 119.11C443.603 119.921 445.011 120.326 446.633 120.326C448.51 120.326 449.982 119.835 451.049 118.854C452.158 117.873 453.203 116.55 454.185 114.886C454.312 114.673 454.441 114.545 454.569 114.502C454.697 114.459 454.931 114.481 455.273 114.566L460.009 115.654C460.478 115.782 460.627 116.187 460.457 116.87C460.115 117.809 459.582 118.854 458.857 120.006C458.131 121.158 457.171 122.225 455.977 123.206C454.824 124.187 453.395 125.019 451.689 125.702C450.025 126.342 448.062 126.662 445.801 126.662C442.515 126.662 439.592 125.937 437.033 124.486C434.473 122.993 432.446 120.945 430.953 118.342C429.502 115.697 428.777 112.646 428.777 109.19C428.777 105.691 429.523 102.619 431.017 99.974C432.51 97.286 434.536 95.1953 437.096 93.702C439.656 92.2086 442.558 91.462 445.801 91.462Z" fill="#F9EDD9"/>
<path d="M474.139 124.486C474.139 125.041 474.011 125.446 473.755 125.702C473.499 125.915 473.051 126.022 472.411 126.022H465.691C465.136 126.022 464.752 125.915 464.539 125.702C464.368 125.489 464.283 125.147 464.283 124.678V93.318C464.283 92.5073 464.624 92.102 465.307 92.102H473.179C473.819 92.102 474.139 92.4646 474.139 93.19V124.486ZM474.267 86.406C474.267 87.4726 473.691 88.006 472.539 88.006H465.627C465.072 88.006 464.688 87.878 464.475 87.622C464.304 87.366 464.219 87.0033 464.219 86.534V79.814C464.219 78.9606 464.581 78.534 465.307 78.534H473.243C473.925 78.534 474.267 78.9393 474.267 79.75V86.406Z" fill="#F9EDD9"/>
<path d="M488.58 111.942C488.58 113.521 488.943 114.929 489.668 116.166C490.436 117.361 491.439 118.299 492.676 118.982C493.956 119.622 495.385 119.942 496.964 119.942C498.5 119.942 499.908 119.622 501.188 118.982C502.511 118.299 503.833 117.19 505.156 115.654C505.327 115.483 505.476 115.398 505.604 115.398C505.732 115.355 505.967 115.419 506.308 115.59L510.916 117.51C511.513 117.766 511.577 118.193 511.108 118.79C509.743 120.753 508.313 122.31 506.82 123.462C505.327 124.614 503.663 125.446 501.828 125.958C500.036 126.427 498.009 126.662 495.748 126.662C492.42 126.662 489.455 125.937 486.852 124.486C484.249 123.035 482.18 121.03 480.644 118.47C479.151 115.867 478.404 112.902 478.404 109.574C478.404 105.905 479.172 102.726 480.708 100.038C482.287 97.3073 484.377 95.1953 486.98 93.702C489.583 92.2086 492.441 91.462 495.556 91.462C498.841 91.462 501.721 92.1873 504.196 93.638C506.671 95.046 508.612 97.0726 510.02 99.718C511.471 102.363 512.196 105.585 512.196 109.382C512.196 109.851 512.153 110.214 512.068 110.47C511.983 110.726 511.663 110.875 511.108 110.918H489.348C489.092 110.918 488.9 111.003 488.772 111.174C488.644 111.345 488.58 111.601 488.58 111.942ZM501.444 105.542C501.913 105.542 502.212 105.499 502.34 105.414C502.468 105.286 502.532 105.03 502.532 104.646C502.532 103.579 502.276 102.491 501.764 101.382C501.295 100.273 500.569 99.3553 499.588 98.63C498.649 97.862 497.433 97.478 495.94 97.478C494.532 97.478 493.273 97.8193 492.164 98.502C491.055 99.1846 490.201 100.145 489.604 101.382C489.007 102.577 488.708 103.942 488.708 105.478L501.444 105.542Z" fill="#F9EDD9"/>
<path d="M517.504 126.022C516.608 126.022 516.16 125.595 516.16 124.742V93.318C516.16 92.5073 516.501 92.102 517.184 92.102H524.928C525.568 92.102 525.888 92.4646 525.888 93.19V96.326C525.888 96.582 525.952 96.7526 526.08 96.838C526.208 96.9233 526.4 96.838 526.656 96.582C527.765 95.558 528.875 94.662 529.984 93.894C531.093 93.126 532.267 92.5286 533.504 92.102C534.741 91.6753 536.064 91.462 537.472 91.462C540.587 91.462 543.04 92.3793 544.832 94.214C546.667 96.0486 547.584 98.502 547.584 101.574V124.486C547.584 125.51 547.072 126.022 546.048 126.022H538.944C538.517 126.022 538.197 125.937 537.984 125.766C537.813 125.553 537.728 125.211 537.728 124.742V103.11C537.728 101.659 537.323 100.55 536.512 99.782C535.744 98.9713 534.592 98.566 533.056 98.566C532.16 98.566 531.328 98.7153 530.56 99.014C529.792 99.3126 529.045 99.7606 528.32 100.358C527.595 100.913 526.827 101.638 526.016 102.534V124.55C526.016 125.531 525.461 126.022 524.352 126.022H517.504Z" fill="#F9EDD9"/>
<path d="M568.493 91.462C571.266 91.462 573.613 91.9526 575.533 92.934C577.496 93.8726 579.096 95.0886 580.333 96.582C581.57 98.0753 582.445 99.6113 582.957 101.19C583.256 102.043 583 102.491 582.189 102.534L575.469 103.174C575 103.217 574.68 102.982 574.509 102.47C574.125 101.659 573.698 100.913 573.229 100.23C572.76 99.5473 572.184 98.9926 571.501 98.566C570.818 98.1393 569.922 97.926 568.813 97.926C567.362 97.926 566.082 98.3313 564.973 99.142C563.864 99.9526 562.989 101.19 562.349 102.854C561.752 104.475 561.453 106.545 561.453 109.062C561.453 111.622 561.773 113.734 562.413 115.398C563.053 117.062 563.949 118.299 565.101 119.11C566.296 119.921 567.704 120.326 569.325 120.326C571.202 120.326 572.674 119.835 573.741 118.854C574.85 117.873 575.896 116.55 576.877 114.886C577.005 114.673 577.133 114.545 577.261 114.502C577.389 114.459 577.624 114.481 577.965 114.566L582.701 115.654C583.17 115.782 583.32 116.187 583.149 116.87C582.808 117.809 582.274 118.854 581.549 120.006C580.824 121.158 579.864 122.225 578.669 123.206C577.517 124.187 576.088 125.019 574.381 125.702C572.717 126.342 570.754 126.662 568.493 126.662C565.208 126.662 562.285 125.937 559.725 124.486C557.165 122.993 555.138 120.945 553.645 118.342C552.194 115.697 551.469 112.646 551.469 109.19C551.469 105.691 552.216 102.619 553.709 99.974C555.202 97.286 557.229 95.1953 559.789 93.702C562.349 92.2086 565.25 91.462 568.493 91.462Z" fill="#F9EDD9"/>
<path d="M595.427 111.942C595.427 113.521 595.79 114.929 596.516 116.166C597.284 117.361 598.286 118.299 599.523 118.982C600.804 119.622 602.233 119.942 603.811 119.942C605.347 119.942 606.755 119.622 608.035 118.982C609.358 118.299 610.681 117.19 612.003 115.654C612.174 115.483 612.323 115.398 612.451 115.398C612.579 115.355 612.814 115.419 613.156 115.59L617.763 117.51C618.361 117.766 618.425 118.193 617.956 118.79C616.59 120.753 615.161 122.31 613.667 123.462C612.174 124.614 610.51 125.446 608.675 125.958C606.883 126.427 604.857 126.662 602.595 126.662C599.267 126.662 596.302 125.937 593.699 124.486C591.097 123.035 589.028 121.03 587.492 118.47C585.998 115.867 585.251 112.902 585.251 109.574C585.251 105.905 586.019 102.726 587.555 100.038C589.134 97.3073 591.225 95.1953 593.828 93.702C596.43 92.2086 599.289 91.462 602.404 91.462C605.689 91.462 608.569 92.1873 611.043 93.638C613.518 95.046 615.459 97.0726 616.867 99.718C618.318 102.363 619.043 105.585 619.043 109.382C619.043 109.851 619.001 110.214 618.915 110.47C618.83 110.726 618.51 110.875 617.956 110.918H596.195C595.94 110.918 595.747 111.003 595.62 111.174C595.492 111.345 595.427 111.601 595.427 111.942ZM608.292 105.542C608.761 105.542 609.06 105.499 609.188 105.414C609.315 105.286 609.38 105.03 609.38 104.646C609.38 103.579 609.124 102.491 608.612 101.382C608.142 100.273 607.417 99.3553 606.435 98.63C605.497 97.862 604.281 97.478 602.787 97.478C601.379 97.478 600.121 97.8193 599.011 98.502C597.902 99.1846 597.049 100.145 596.451 101.382C595.854 102.577 595.555 103.942 595.555 105.478L608.292 105.542Z" fill="#F9EDD9"/>
<path d="M631.896 126.022V104.204H636.509V122.219H645.863V126.022H631.896Z" fill="#BA581C"/>
<path d="M656.263 109.658V113.067H646.408V109.658H656.263ZM648.645 105.738H653.184V120.994C653.184 121.413 653.248 121.739 653.375 121.974C653.503 122.201 653.681 122.361 653.908 122.453C654.143 122.545 654.412 122.592 654.718 122.592C654.931 122.592 655.144 122.574 655.357 122.538C655.57 122.496 655.733 122.464 655.847 122.442L656.561 125.82C656.334 125.891 656.014 125.972 655.602 126.065C655.19 126.164 654.689 126.224 654.1 126.246C653.006 126.288 652.047 126.143 651.224 125.809C650.407 125.475 649.771 124.957 649.317 124.254C648.862 123.55 648.638 122.663 648.645 121.59V105.738Z" fill="#BA581C"/>
<path d="M664.473 126.288C663.23 126.288 662.104 125.969 661.096 125.329C660.094 124.683 659.299 123.735 658.709 122.485C658.127 121.228 657.836 119.687 657.836 117.861C657.836 115.986 658.138 114.428 658.741 113.185C659.345 111.935 660.148 111.001 661.149 110.383C662.158 109.758 663.262 109.445 664.462 109.445C665.378 109.445 666.142 109.602 666.753 109.914C667.371 110.219 667.868 110.603 668.244 111.065C668.628 111.519 668.919 111.967 669.118 112.407H669.256V104.204H673.784V126.022H669.31V123.401H669.118C668.905 123.856 668.603 124.307 668.212 124.754C667.829 125.195 667.328 125.56 666.71 125.852C666.099 126.143 665.354 126.288 664.473 126.288ZM665.911 122.677C666.643 122.677 667.261 122.478 667.765 122.08C668.276 121.675 668.667 121.111 668.937 120.386C669.214 119.662 669.352 118.813 669.352 117.84C669.352 116.867 669.217 116.022 668.947 115.305C668.677 114.587 668.287 114.033 667.776 113.643C667.264 113.252 666.643 113.057 665.911 113.057C665.165 113.057 664.537 113.259 664.026 113.664C663.514 114.069 663.127 114.63 662.864 115.347C662.602 116.065 662.47 116.896 662.47 117.84C662.47 118.792 662.602 119.633 662.864 120.365C663.134 121.089 663.521 121.658 664.026 122.07C664.537 122.474 665.165 122.677 665.911 122.677Z" fill="#BA581C"/>
<path d="M679.568 126.299C678.865 126.299 678.261 126.05 677.757 125.553C677.26 125.049 677.011 124.445 677.011 123.742C677.011 123.046 677.26 122.45 677.757 121.952C678.261 121.455 678.865 121.207 679.568 121.207C680.25 121.207 680.846 121.455 681.358 121.952C681.869 122.45 682.125 123.046 682.125 123.742C682.125 124.211 682.004 124.641 681.763 125.031C681.528 125.415 681.219 125.724 680.836 125.958C680.452 126.185 680.03 126.299 679.568 126.299Z" fill="#BA581C"/>
<path d="M0 0H128V31.5362H0V0Z" fill="#BA581C"/>
<path d="M0 94.022H128V125.022H0V94.022Z" fill="#F9EDD9"/>
<path d="M0 47.3047H95.5362V78.841H0V47.3047Z" fill="#C9740E"/>
</svg>
