<svg width="568" height="204" viewBox="0 0 568 204" fill="none" xmlns="http://www.w3.org/2000/svg">
<path d="M226.144 59C225.803 59 225.525 58.9147 225.312 58.744C225.141 58.5307 225.056 58.2747 225.056 57.976V12.728C225.056 12.344 225.163 12.0453 225.376 11.832C225.589 11.6187 225.867 11.512 226.208 11.512H242.656C248.715 11.512 253.365 12.5787 256.608 14.712C259.851 16.8027 261.472 19.8747 261.472 23.928C261.472 26.36 260.832 28.408 259.552 30.072C258.272 31.736 256.117 33.1867 253.088 34.424C252.96 34.4667 252.896 34.552 252.896 34.68C252.896 34.808 252.96 34.8933 253.088 34.936C256.331 35.9173 258.72 37.304 260.256 39.096C261.835 40.888 262.624 43.256 262.624 46.2C262.624 50.5093 260.981 53.7307 257.696 55.864C254.453 57.9547 249.675 59 243.36 59H226.144ZM243.04 52.472C246.325 52.472 248.757 51.8747 250.336 50.68C251.957 49.4427 252.768 47.7147 252.768 45.496C252.768 43.8747 252.363 42.5307 251.552 41.464C250.784 40.3973 249.696 39.608 248.288 39.096C246.923 38.584 245.365 38.328 243.616 38.328H235.68C234.912 38.328 234.528 38.6693 234.528 39.352V51.384C234.528 52.1093 234.805 52.472 235.36 52.472H243.04ZM243.616 31.672C244.683 31.672 245.707 31.5653 246.688 31.352C247.712 31.096 248.608 30.6907 249.376 30.136C250.187 29.5813 250.827 28.8987 251.296 28.088C251.808 27.2347 252.064 26.2107 252.064 25.016C252.064 22.712 251.211 20.984 249.504 19.832C247.84 18.6373 245.643 18.04 242.912 18.04H235.616C234.891 18.04 234.528 18.36 234.528 19V30.584C234.528 31.3093 234.805 31.672 235.36 31.672H243.616ZM281.622 53.56C283.115 53.56 284.523 53.1547 285.846 52.344C287.211 51.5333 288.513 50.4667 289.75 49.144V26.36C289.75 25.5067 290.241 25.08 291.222 25.08H296.982C297.75 25.08 298.134 25.4853 298.134 26.296L298.006 57.976C298.006 58.6587 297.707 59 297.11 59H290.838C290.241 59 289.942 58.68 289.942 58.04V54.648C289.942 54.4347 289.878 54.3067 289.75 54.264C289.665 54.1787 289.515 54.2427 289.302 54.456C287.297 56.3333 285.398 57.6773 283.606 58.488C281.814 59.256 279.958 59.64 278.038 59.64C276.118 59.64 274.411 59.2347 272.918 58.424C271.425 57.6133 270.251 56.44 269.398 54.904C268.545 53.368 268.118 51.576 268.118 49.528V26.424C268.118 25.528 268.566 25.08 269.462 25.08H275.35C276.075 25.08 276.438 25.4853 276.438 26.296V48.12C276.438 49.7413 276.886 51.064 277.782 52.088C278.721 53.0693 280.001 53.56 281.622 53.56ZM305.999 59C305.572 59 305.274 58.9147 305.103 58.744C304.932 58.5307 304.847 58.232 304.847 57.848V26.168C304.847 25.4427 305.146 25.08 305.743 25.08H311.951C312.548 25.08 312.847 25.4 312.847 26.04V29.944C312.847 30.2 312.932 30.3707 313.103 30.456C313.274 30.4987 313.466 30.392 313.679 30.136C314.618 28.8987 315.62 27.8747 316.687 27.064C317.796 26.2107 318.906 25.5707 320.015 25.144C321.167 24.6747 322.276 24.44 323.343 24.44C324.879 24.44 325.647 24.7813 325.647 25.464V31.608C325.647 32.2053 325.37 32.4613 324.815 32.376C324.175 32.2053 323.492 32.0987 322.767 32.056C322.084 31.9707 321.444 31.928 320.847 31.928C320.036 31.928 319.162 32.0987 318.223 32.44C317.327 32.7813 316.495 33.272 315.727 33.912C314.959 34.5093 314.34 35.1707 313.871 35.896C313.402 36.6213 313.167 37.368 313.167 38.136V57.72C313.167 58.5733 312.676 59 311.695 59H305.999ZM335.792 44.664C335.792 46.4133 336.197 47.992 337.008 49.4C337.818 50.7653 338.928 51.8533 340.336 52.664C341.786 53.432 343.365 53.816 345.072 53.816C346.821 53.816 348.4 53.4533 349.808 52.728C351.258 52.0027 352.624 50.8293 353.904 49.208C354.074 48.9947 354.224 48.888 354.352 48.888C354.48 48.8453 354.693 48.9093 354.992 49.08L358.896 50.808C359.45 51.064 359.514 51.448 359.088 51.96C357.808 53.8373 356.421 55.352 354.928 56.504C353.477 57.6133 351.856 58.424 350.064 58.936C348.314 59.4053 346.33 59.64 344.112 59.64C340.869 59.64 337.968 58.9147 335.408 57.464C332.848 56.0133 330.821 54.008 329.328 51.448C327.877 48.8453 327.152 45.8587 327.152 42.488C327.152 38.776 327.898 35.576 329.392 32.888C330.928 30.2 332.976 28.1307 335.536 26.68C338.096 25.1867 340.912 24.44 343.984 24.44C347.226 24.44 350.042 25.144 352.432 26.552C354.864 27.96 356.762 29.9867 358.128 32.632C359.493 35.2347 360.176 38.4133 360.176 42.168C360.176 42.5947 360.133 42.936 360.048 43.192C360.005 43.448 359.706 43.5973 359.152 43.64H336.496C336.24 43.64 336.048 43.7253 335.92 43.896C335.834 44.0667 335.792 44.3227 335.792 44.664ZM350.96 38.904C351.386 38.904 351.664 38.8613 351.792 38.776C351.962 38.648 352.048 38.392 352.048 38.008C352.048 36.6853 351.749 35.384 351.152 34.104C350.554 32.824 349.68 31.7787 348.528 30.968C347.376 30.1147 345.968 29.688 344.304 29.688C342.597 29.688 341.104 30.1147 339.824 30.968C338.544 31.7787 337.562 32.888 336.88 34.296C336.24 35.6613 335.92 37.1973 335.92 38.904H350.96ZM383.663 55.48C382.255 56.76 380.676 57.784 378.927 58.552C377.22 59.2773 375.279 59.64 373.103 59.64C369.86 59.64 367.3 58.7867 365.423 57.08C363.545 55.3307 362.607 53.0693 362.607 50.296C362.607 47.9493 363.311 45.9227 364.719 44.216C366.127 42.4667 368.175 41.1013 370.863 40.12C373.551 39.1387 376.793 38.5627 380.591 38.392L383.791 38.2C384.004 38.1573 384.217 38.072 384.431 37.944C384.687 37.816 384.815 37.5813 384.815 37.24V35.768C384.815 33.8907 384.26 32.44 383.151 31.416C382.041 30.3493 380.484 29.816 378.479 29.816C377.028 29.816 375.641 30.1573 374.319 30.84C373.039 31.48 371.929 32.5467 370.991 34.04C370.82 34.296 370.649 34.4667 370.479 34.552C370.351 34.6373 370.095 34.6373 369.711 34.552L364.335 33.208C364.121 33.1227 363.972 32.9947 363.887 32.824C363.801 32.6533 363.865 32.312 364.079 31.8C365.231 29.368 367.065 27.5333 369.583 26.296C372.1 25.0587 375.193 24.44 378.863 24.44C382.148 24.44 384.815 24.888 386.863 25.784C388.911 26.68 390.404 27.9387 391.343 29.56C392.281 31.1387 392.751 33.016 392.751 35.192V57.72C392.751 58.1893 392.665 58.5307 392.495 58.744C392.367 58.9147 392.089 59 391.663 59H386.223C385.839 59 385.54 58.8507 385.327 58.552C385.156 58.2533 385.049 57.8907 385.007 57.464L384.943 55.544C384.815 54.8187 384.388 54.7973 383.663 55.48ZM384.815 43.512C384.815 42.744 384.495 42.3813 383.855 42.424L381.231 42.616C379.823 42.7013 378.479 42.9147 377.199 43.256C375.961 43.5547 374.852 43.9813 373.871 44.536C372.932 45.048 372.185 45.7093 371.631 46.52C371.076 47.288 370.799 48.2053 370.799 49.272C370.799 50.7227 371.311 51.8747 372.335 52.728C373.359 53.5813 374.767 54.008 376.559 54.008C377.753 54.008 378.841 53.816 379.823 53.432C380.804 53.048 381.657 52.5573 382.383 51.96C383.108 51.3627 383.684 50.744 384.111 50.104C384.58 49.4213 384.815 48.7387 384.815 48.056V43.512ZM412.502 53.56C413.995 53.56 415.403 53.1547 416.726 52.344C418.091 51.5333 419.393 50.4667 420.63 49.144V26.36C420.63 25.5067 421.121 25.08 422.102 25.08H427.862C428.63 25.08 429.014 25.4853 429.014 26.296L428.886 57.976C428.886 58.6587 428.587 59 427.99 59H421.718C421.121 59 420.822 58.68 420.822 58.04V54.648C420.822 54.4347 420.758 54.3067 420.63 54.264C420.545 54.1787 420.395 54.2427 420.182 54.456C418.177 56.3333 416.278 57.6773 414.486 58.488C412.694 59.256 410.838 59.64 408.918 59.64C406.998 59.64 405.291 59.2347 403.798 58.424C402.305 57.6133 401.131 56.44 400.278 54.904C399.425 53.368 398.998 51.576 398.998 49.528V26.424C398.998 25.528 399.446 25.08 400.342 25.08H406.23C406.955 25.08 407.318 25.4853 407.318 26.296V48.12C407.318 49.7413 407.766 51.064 408.662 52.088C409.601 53.0693 410.881 53.56 412.502 53.56ZM462.926 59.64C459.598 59.64 456.675 58.8933 454.158 57.4C451.641 55.9067 449.657 53.8587 448.206 51.256C446.798 48.6107 446.094 45.6027 446.094 42.232C446.094 38.6907 446.819 35.5973 448.27 32.952C449.763 30.264 451.769 28.1733 454.286 26.68C456.846 25.1867 459.747 24.44 462.99 24.44C466.361 24.44 469.305 25.208 471.822 26.744C474.339 28.2373 476.302 30.328 477.71 33.016C479.118 35.6613 479.822 38.712 479.822 42.168C479.822 45.5813 479.097 48.6107 477.646 51.256C476.238 53.8587 474.275 55.9067 471.758 57.4C469.241 58.8933 466.297 59.64 462.926 59.64ZM462.99 53.944C464.825 53.944 466.361 53.496 467.598 52.6C468.835 51.6613 469.774 50.3173 470.414 48.568C471.054 46.776 471.374 44.6 471.374 42.04C471.374 39.4373 471.033 37.24 470.35 35.448C469.71 33.656 468.771 32.2907 467.534 31.352C466.297 30.4133 464.782 29.944 462.99 29.944C461.241 29.944 459.726 30.4133 458.446 31.352C457.166 32.2907 456.185 33.656 455.502 35.448C454.862 37.24 454.542 39.4373 454.542 42.04C454.542 44.6 454.862 46.776 455.502 48.568C456.185 50.3173 457.166 51.6613 458.446 52.6C459.726 53.496 461.241 53.944 462.99 53.944ZM503.671 25.08C504.012 25.08 504.268 25.1867 504.439 25.4C504.609 25.5707 504.695 25.784 504.695 26.04V30.072C504.695 30.6267 504.375 30.904 503.735 30.904H497.783C497.356 30.904 497.143 31.1173 497.143 31.544V57.912C497.143 58.6373 496.823 59 496.183 59H489.719C489.121 59 488.823 58.6587 488.823 57.976V31.48C488.823 31.096 488.673 30.904 488.375 30.904H483.191C482.551 30.904 482.231 30.6267 482.231 30.072V26.04C482.231 25.784 482.295 25.5707 482.423 25.4C482.593 25.1867 482.871 25.08 483.255 25.08H488.119C488.588 25.08 488.823 24.8027 488.823 24.248V20.088C488.823 17.3573 489.569 15.2453 491.063 13.752C492.599 12.2587 494.796 11.512 497.655 11.512H503.735C504.545 11.512 504.951 11.896 504.951 12.664L505.015 16.248C505.015 16.504 504.929 16.7173 504.759 16.888C504.631 17.0587 504.417 17.144 504.119 17.144H500.343C499.233 17.144 498.38 17.528 497.783 18.296C497.228 19.064 496.951 20.0453 496.951 21.24V24.44C496.951 24.8667 497.185 25.08 497.655 25.08H503.671ZM223.072 131C222.688 131 222.411 130.829 222.24 130.488C222.069 130.147 222.069 129.699 222.24 129.144L238.176 84.792C238.347 84.3227 238.539 84.0027 238.752 83.832C238.965 83.6187 239.328 83.512 239.84 83.512H249.44C250.379 83.512 251.019 83.9813 251.36 84.92L267.168 129.272C267.296 129.613 267.296 129.997 267.168 130.424C267.04 130.808 266.784 131 266.4 131H256.992C256.352 131 255.947 130.701 255.776 130.104L252.448 120.76C252.405 120.547 252.32 120.376 252.192 120.248C252.107 120.12 251.915 120.056 251.616 120.056H236C235.573 120.056 235.296 120.269 235.168 120.696L231.776 130.168C231.691 130.424 231.541 130.637 231.328 130.808C231.157 130.936 230.859 131 230.432 131H223.072ZM248.992 111.544C249.589 111.544 249.781 111.181 249.568 110.456L244.192 95.48C244.064 95.224 243.915 95.096 243.744 95.096C243.616 95.096 243.488 95.2453 243.36 95.544L237.92 110.456C237.621 111.181 237.813 111.544 238.496 111.544H248.992ZM280.127 97.08C281.066 97.08 281.535 97.5067 281.535 98.36V100.28C281.535 100.536 281.62 100.685 281.791 100.728C281.962 100.728 282.175 100.621 282.431 100.408C283.114 99.768 283.86 99.1493 284.671 98.552C285.524 97.9547 286.527 97.464 287.679 97.08C288.831 96.6533 290.196 96.44 291.775 96.44C294.292 96.44 296.532 97.08 298.495 98.36C300.458 99.5973 302.015 101.496 303.167 104.056C304.319 106.573 304.895 109.816 304.895 113.784C304.895 117.88 304.298 121.251 303.103 123.896C301.908 126.541 300.287 128.504 298.239 129.784C296.191 131.021 293.866 131.64 291.263 131.64C289.599 131.64 288.063 131.384 286.655 130.872C285.247 130.36 283.924 129.528 282.687 128.376C282.26 127.949 281.94 127.757 281.727 127.8C281.556 127.843 281.471 128.163 281.471 128.76V140.472C281.471 141.197 281.151 141.56 280.511 141.56H272.639C271.956 141.56 271.615 141.176 271.615 140.408V98.488C271.615 98.0187 271.722 97.6773 271.935 97.464C272.148 97.208 272.532 97.08 273.087 97.08H280.127ZM281.471 122.232C282.324 123.171 283.242 123.939 284.223 124.536C285.204 125.133 286.335 125.432 287.615 125.432C289.108 125.432 290.388 125.048 291.455 124.28C292.564 123.469 293.418 122.211 294.015 120.504C294.612 118.755 294.911 116.451 294.911 113.592C294.911 110.819 294.612 108.643 294.015 107.064C293.418 105.485 292.564 104.355 291.455 103.672C290.388 102.989 289.172 102.648 287.807 102.648C286.612 102.648 285.524 102.904 284.543 103.416C283.604 103.885 282.858 104.525 282.303 105.336C281.748 106.104 281.471 106.915 281.471 107.768V122.232ZM317.847 97.08C318.786 97.08 319.255 97.5067 319.255 98.36V100.28C319.255 100.536 319.34 100.685 319.511 100.728C319.682 100.728 319.895 100.621 320.151 100.408C320.834 99.768 321.58 99.1493 322.391 98.552C323.244 97.9547 324.247 97.464 325.399 97.08C326.551 96.6533 327.916 96.44 329.495 96.44C332.012 96.44 334.252 97.08 336.215 98.36C338.178 99.5973 339.735 101.496 340.887 104.056C342.039 106.573 342.615 109.816 342.615 113.784C342.615 117.88 342.018 121.251 340.823 123.896C339.628 126.541 338.007 128.504 335.959 129.784C333.911 131.021 331.586 131.64 328.983 131.64C327.319 131.64 325.783 131.384 324.375 130.872C322.967 130.36 321.644 129.528 320.407 128.376C319.98 127.949 319.66 127.757 319.447 127.8C319.276 127.843 319.191 128.163 319.191 128.76V140.472C319.191 141.197 318.871 141.56 318.231 141.56H310.359C309.676 141.56 309.335 141.176 309.335 140.408V98.488C309.335 98.0187 309.442 97.6773 309.655 97.464C309.868 97.208 310.252 97.08 310.807 97.08H317.847ZM319.191 122.232C320.044 123.171 320.962 123.939 321.943 124.536C322.924 125.133 324.055 125.432 325.335 125.432C326.828 125.432 328.108 125.048 329.175 124.28C330.284 123.469 331.138 122.211 331.735 120.504C332.332 118.755 332.631 116.451 332.631 113.592C332.631 110.819 332.332 108.643 331.735 107.064C331.138 105.485 330.284 104.355 329.175 103.672C328.108 102.989 326.892 102.648 325.527 102.648C324.332 102.648 323.244 102.904 322.263 103.416C321.324 103.885 320.578 104.525 320.023 105.336C319.468 106.104 319.191 106.915 319.191 107.768V122.232ZM356.975 129.464C356.975 130.019 356.847 130.424 356.591 130.68C356.335 130.893 355.887 131 355.247 131H348.463C347.524 131 347.055 130.552 347.055 129.656L347.247 84.728C347.247 83.9173 347.588 83.512 348.271 83.512H356.015C356.655 83.512 356.975 83.896 356.975 84.664V129.464ZM372.631 129.464C372.631 130.019 372.503 130.424 372.247 130.68C371.991 130.893 371.543 131 370.903 131H364.183C363.628 131 363.244 130.893 363.031 130.68C362.86 130.467 362.775 130.125 362.775 129.656V98.296C362.775 97.4853 363.116 97.08 363.799 97.08H371.671C372.311 97.08 372.631 97.4427 372.631 98.168V129.464ZM372.759 91.384C372.759 92.4507 372.183 92.984 371.031 92.984H364.119C363.564 92.984 363.18 92.856 362.967 92.6C362.796 92.344 362.711 91.9813 362.711 91.512V84.792C362.711 83.9387 363.074 83.512 363.799 83.512H371.735C372.418 83.512 372.759 83.9173 372.759 84.728V91.384ZM387.073 116.92C387.073 118.499 387.435 119.907 388.161 121.144C388.929 122.339 389.931 123.277 391.169 123.96C392.449 124.6 393.878 124.92 395.457 124.92C396.993 124.92 398.401 124.6 399.681 123.96C401.003 123.277 402.326 122.168 403.649 120.632C403.819 120.461 403.969 120.376 404.097 120.376C404.225 120.333 404.459 120.397 404.801 120.568L409.409 122.488C410.006 122.744 410.07 123.171 409.601 123.768C408.235 125.731 406.806 127.288 405.313 128.44C403.819 129.592 402.155 130.424 400.321 130.936C398.529 131.405 396.502 131.64 394.241 131.64C390.913 131.64 387.947 130.915 385.345 129.464C382.742 128.013 380.673 126.008 379.137 123.448C377.643 120.845 376.897 117.88 376.897 114.552C376.897 110.883 377.665 107.704 379.201 105.016C380.779 102.285 382.87 100.173 385.473 98.68C388.075 97.1867 390.934 96.44 394.049 96.44C397.334 96.44 400.214 97.1653 402.689 98.616C405.163 100.024 407.105 102.051 408.513 104.696C409.963 107.341 410.689 110.563 410.689 114.36C410.689 114.829 410.646 115.192 410.561 115.448C410.475 115.704 410.155 115.853 409.601 115.896H387.841C387.585 115.896 387.393 115.981 387.265 116.152C387.137 116.323 387.073 116.579 387.073 116.92ZM399.937 110.52C400.406 110.52 400.705 110.477 400.833 110.392C400.961 110.264 401.025 110.008 401.025 109.624C401.025 108.557 400.769 107.469 400.257 106.36C399.787 105.251 399.062 104.333 398.081 103.608C397.142 102.84 395.926 102.456 394.433 102.456C393.025 102.456 391.766 102.797 390.657 103.48C389.547 104.163 388.694 105.123 388.097 106.36C387.499 107.555 387.201 108.92 387.201 110.456L399.937 110.52ZM438.205 131C437.863 131 437.543 130.915 437.245 130.744C436.989 130.531 436.861 130.189 436.861 129.72V127.928C436.861 127.629 436.775 127.459 436.605 127.416C436.434 127.373 436.221 127.459 435.965 127.672C435.282 128.312 434.514 128.952 433.661 129.592C432.807 130.189 431.805 130.68 430.653 131.064C429.501 131.448 428.157 131.64 426.621 131.64C424.018 131.64 421.714 131 419.709 129.72C417.703 128.44 416.125 126.52 414.973 123.96C413.821 121.357 413.245 118.136 413.245 114.296C413.245 110.712 413.863 107.597 415.101 104.952C416.381 102.264 418.087 100.173 420.221 98.68C422.354 97.1867 424.701 96.44 427.261 96.44C428.967 96.44 430.482 96.7173 431.805 97.272C433.127 97.8267 434.407 98.68 435.645 99.832C435.986 100.088 436.242 100.195 436.413 100.152C436.626 100.067 436.733 99.7893 436.733 99.32V84.664C436.733 83.896 437.074 83.512 437.757 83.512H445.565C446.247 83.512 446.589 83.9173 446.589 84.728V129.656C446.589 130.125 446.482 130.467 446.269 130.68C446.055 130.893 445.671 131 445.117 131H438.205ZM436.733 105.912C435.794 104.888 434.834 104.12 433.853 103.608C432.914 103.053 431.826 102.776 430.589 102.776C429.181 102.776 427.901 103.181 426.749 103.992C425.639 104.76 424.765 105.976 424.125 107.64C423.527 109.304 423.229 111.48 423.229 114.168C423.229 116.899 423.527 119.096 424.125 120.76C424.765 122.424 425.618 123.64 426.685 124.408C427.794 125.133 429.053 125.496 430.461 125.496C431.655 125.496 432.722 125.219 433.661 124.664C434.599 124.109 435.346 123.405 435.901 122.552C436.455 121.699 436.733 120.803 436.733 119.864V105.912ZM251.744 166.712C250.805 165.688 249.632 164.771 248.224 163.96C246.859 163.149 244.896 162.744 242.336 162.744C239.648 162.744 237.643 163.235 236.32 164.216C234.997 165.155 234.336 166.371 234.336 167.864C234.336 168.376 234.464 168.931 234.72 169.528C234.976 170.125 235.488 170.701 236.256 171.256C237.024 171.811 238.112 172.301 239.52 172.728L249.632 175.608C253.557 176.675 256.416 178.403 258.208 180.792C260 183.139 260.896 185.869 260.896 188.984C260.896 191.971 260.128 194.573 258.592 196.792C257.056 198.968 254.859 200.653 252 201.848C249.141 203.043 245.749 203.64 241.824 203.64C238.923 203.64 236.192 203.32 233.632 202.68C231.115 201.997 228.875 201.037 226.912 199.8C224.992 198.52 223.477 197.048 222.368 195.384C222.155 194.957 222.069 194.616 222.112 194.36C222.155 194.061 222.368 193.763 222.752 193.464L227.68 190.072C228.192 189.773 228.597 189.645 228.896 189.688C229.237 189.731 229.536 189.901 229.792 190.2C230.816 191.48 231.819 192.547 232.8 193.4C233.824 194.253 234.997 194.872 236.32 195.256C237.643 195.64 239.221 195.832 241.056 195.832C243.829 195.832 246.048 195.405 247.712 194.552C249.376 193.656 250.208 192.291 250.208 190.456C250.208 189.731 250.037 189.069 249.696 188.472C249.355 187.832 248.8 187.277 248.032 186.808C247.307 186.296 246.261 185.827 244.896 185.4L235.232 182.648C232.715 181.923 230.603 180.899 228.896 179.576C227.189 178.253 225.888 176.696 224.992 174.904C224.139 173.112 223.712 171.235 223.712 169.272C223.712 166.541 224.459 164.088 225.952 161.912C227.488 159.736 229.621 158.029 232.352 156.792C235.125 155.512 238.347 154.872 242.016 154.872C244.448 154.872 246.709 155.149 248.8 155.704C250.933 156.259 252.853 157.027 254.56 158.008C256.267 158.989 257.653 160.184 258.72 161.592C258.891 161.805 259.019 162.061 259.104 162.36C259.189 162.616 259.061 162.893 258.72 163.192L253.344 167.16C253.088 167.331 252.853 167.395 252.64 167.352C252.427 167.267 252.128 167.053 251.744 166.712ZM281.041 168.44C283.814 168.44 286.161 168.931 288.081 169.912C290.043 170.851 291.643 172.067 292.881 173.56C294.118 175.053 294.993 176.589 295.505 178.168C295.803 179.021 295.547 179.469 294.737 179.512L288.017 180.152C287.547 180.195 287.227 179.96 287.057 179.448C286.673 178.637 286.246 177.891 285.777 177.208C285.307 176.525 284.731 175.971 284.049 175.544C283.366 175.117 282.47 174.904 281.361 174.904C279.91 174.904 278.63 175.309 277.521 176.12C276.411 176.931 275.537 178.168 274.897 179.832C274.299 181.453 274.001 183.523 274.001 186.04C274.001 188.6 274.321 190.712 274.961 192.376C275.601 194.04 276.497 195.277 277.649 196.088C278.843 196.899 280.251 197.304 281.873 197.304C283.75 197.304 285.222 196.813 286.289 195.832C287.398 194.851 288.443 193.528 289.425 191.864C289.553 191.651 289.681 191.523 289.809 191.48C289.937 191.437 290.171 191.459 290.513 191.544L295.249 192.632C295.718 192.76 295.867 193.165 295.697 193.848C295.355 194.787 294.822 195.832 294.097 196.984C293.371 198.136 292.411 199.203 291.217 200.184C290.065 201.165 288.635 201.997 286.929 202.68C285.265 203.32 283.302 203.64 281.041 203.64C277.755 203.64 274.833 202.915 272.273 201.464C269.713 199.971 267.686 197.923 266.193 195.32C264.742 192.675 264.017 189.624 264.017 186.168C264.017 182.669 264.763 179.597 266.257 176.952C267.75 174.264 269.777 172.173 272.337 170.68C274.897 169.187 277.798 168.44 281.041 168.44ZM309.379 201.464C309.379 202.019 309.251 202.424 308.995 202.68C308.739 202.893 308.291 203 307.651 203H300.931C300.376 203 299.992 202.893 299.779 202.68C299.608 202.467 299.523 202.125 299.523 201.656V170.296C299.523 169.485 299.864 169.08 300.547 169.08H308.419C309.059 169.08 309.379 169.443 309.379 170.168V201.464ZM309.507 163.384C309.507 164.451 308.931 164.984 307.779 164.984H300.867C300.312 164.984 299.928 164.856 299.715 164.6C299.544 164.344 299.459 163.981 299.459 163.512V156.792C299.459 155.939 299.821 155.512 300.547 155.512H308.483C309.165 155.512 309.507 155.917 309.507 156.728V163.384ZM323.82 188.92C323.82 190.499 324.183 191.907 324.908 193.144C325.676 194.339 326.679 195.277 327.916 195.96C329.196 196.6 330.625 196.92 332.204 196.92C333.74 196.92 335.148 196.6 336.428 195.96C337.751 195.277 339.073 194.168 340.396 192.632C340.567 192.461 340.716 192.376 340.844 192.376C340.972 192.333 341.207 192.397 341.548 192.568L346.156 194.488C346.753 194.744 346.817 195.171 346.348 195.768C344.983 197.731 343.553 199.288 342.06 200.44C340.567 201.592 338.903 202.424 337.068 202.936C335.276 203.405 333.249 203.64 330.988 203.64C327.66 203.64 324.695 202.915 322.092 201.464C319.489 200.013 317.42 198.008 315.884 195.448C314.391 192.845 313.644 189.88 313.644 186.552C313.644 182.883 314.412 179.704 315.948 177.016C317.527 174.285 319.617 172.173 322.22 170.68C324.823 169.187 327.681 168.44 330.796 168.44C334.081 168.44 336.961 169.165 339.436 170.616C341.911 172.024 343.852 174.051 345.26 176.696C346.711 179.341 347.436 182.563 347.436 186.36C347.436 186.829 347.393 187.192 347.308 187.448C347.223 187.704 346.903 187.853 346.348 187.896H324.588C324.332 187.896 324.14 187.981 324.012 188.152C323.884 188.323 323.82 188.579 323.82 188.92ZM336.684 182.52C337.153 182.52 337.452 182.477 337.58 182.392C337.708 182.264 337.772 182.008 337.772 181.624C337.772 180.557 337.516 179.469 337.004 178.36C336.535 177.251 335.809 176.333 334.828 175.608C333.889 174.84 332.673 174.456 331.18 174.456C329.772 174.456 328.513 174.797 327.404 175.48C326.295 176.163 325.441 177.123 324.844 178.36C324.247 179.555 323.948 180.92 323.948 182.456L336.684 182.52ZM352.744 203C351.848 203 351.4 202.573 351.4 201.72V170.296C351.4 169.485 351.741 169.08 352.424 169.08H360.168C360.808 169.08 361.128 169.443 361.128 170.168V173.304C361.128 173.56 361.192 173.731 361.32 173.816C361.448 173.901 361.64 173.816 361.896 173.56C363.005 172.536 364.115 171.64 365.224 170.872C366.333 170.104 367.507 169.507 368.744 169.08C369.981 168.653 371.304 168.44 372.712 168.44C375.827 168.44 378.28 169.357 380.072 171.192C381.907 173.027 382.824 175.48 382.824 178.552V201.464C382.824 202.488 382.312 203 381.288 203H374.184C373.757 203 373.437 202.915 373.224 202.744C373.053 202.531 372.968 202.189 372.968 201.72V180.088C372.968 178.637 372.563 177.528 371.752 176.76C370.984 175.949 369.832 175.544 368.296 175.544C367.4 175.544 366.568 175.693 365.8 175.992C365.032 176.291 364.285 176.739 363.56 177.336C362.835 177.891 362.067 178.616 361.256 179.512V201.528C361.256 202.509 360.701 203 359.592 203H352.744ZM403.733 168.44C406.506 168.44 408.853 168.931 410.773 169.912C412.736 170.851 414.336 172.067 415.573 173.56C416.81 175.053 417.685 176.589 418.197 178.168C418.496 179.021 418.24 179.469 417.429 179.512L410.709 180.152C410.24 180.195 409.92 179.96 409.749 179.448C409.365 178.637 408.938 177.891 408.469 177.208C408 176.525 407.424 175.971 406.741 175.544C406.058 175.117 405.162 174.904 404.053 174.904C402.602 174.904 401.322 175.309 400.213 176.12C399.104 176.931 398.229 178.168 397.589 179.832C396.992 181.453 396.693 183.523 396.693 186.04C396.693 188.6 397.013 190.712 397.653 192.376C398.293 194.04 399.189 195.277 400.341 196.088C401.536 196.899 402.944 197.304 404.565 197.304C406.442 197.304 407.914 196.813 408.981 195.832C410.09 194.851 411.136 193.528 412.117 191.864C412.245 191.651 412.373 191.523 412.501 191.48C412.629 191.437 412.864 191.459 413.205 191.544L417.941 192.632C418.41 192.76 418.56 193.165 418.389 193.848C418.048 194.787 417.514 195.832 416.789 196.984C416.064 198.136 415.104 199.203 413.909 200.184C412.757 201.165 411.328 201.997 409.621 202.68C407.957 203.32 405.994 203.64 403.733 203.64C400.448 203.64 397.525 202.915 394.965 201.464C392.405 199.971 390.378 197.923 388.885 195.32C387.434 192.675 386.709 189.624 386.709 186.168C386.709 182.669 387.456 179.597 388.949 176.952C390.442 174.264 392.469 172.173 395.029 170.68C397.589 169.187 400.49 168.44 403.733 168.44ZM430.668 188.92C430.668 190.499 431.03 191.907 431.756 193.144C432.524 194.339 433.526 195.277 434.764 195.96C436.044 196.6 437.473 196.92 439.052 196.92C440.588 196.92 441.996 196.6 443.276 195.96C444.598 195.277 445.921 194.168 447.244 192.632C447.414 192.461 447.564 192.376 447.692 192.376C447.82 192.333 448.054 192.397 448.396 192.568L453.004 194.488C453.601 194.744 453.665 195.171 453.196 195.768C451.83 197.731 450.401 199.288 448.908 200.44C447.414 201.592 445.75 202.424 443.916 202.936C442.124 203.405 440.097 203.64 437.836 203.64C434.508 203.64 431.542 202.915 428.94 201.464C426.337 200.013 424.268 198.008 422.732 195.448C421.238 192.845 420.492 189.88 420.492 186.552C420.492 182.883 421.26 179.704 422.796 177.016C424.374 174.285 426.465 172.173 429.068 170.68C431.67 169.187 434.529 168.44 437.644 168.44C440.929 168.44 443.809 169.165 446.284 170.616C448.758 172.024 450.7 174.051 452.108 176.696C453.558 179.341 454.284 182.563 454.284 186.36C454.284 186.829 454.241 187.192 454.156 187.448C454.07 187.704 453.75 187.853 453.196 187.896H431.436C431.18 187.896 430.988 187.981 430.86 188.152C430.732 188.323 430.668 188.579 430.668 188.92ZM443.532 182.52C444.001 182.52 444.3 182.477 444.428 182.392C444.556 182.264 444.62 182.008 444.62 181.624C444.62 180.557 444.364 179.469 443.852 178.36C443.382 177.251 442.657 176.333 441.676 175.608C440.737 174.84 439.521 174.456 438.028 174.456C436.62 174.456 435.361 174.797 434.252 175.48C433.142 176.163 432.289 177.123 431.692 178.36C431.094 179.555 430.796 180.92 430.796 182.456L443.532 182.52Z" fill="#F9EDD9"/>
<path d="M471.798 203V174.636H476.936V198.693H489.428V203H471.798ZM502.632 181.727V185.605H490.403V181.727H502.632ZM493.423 176.631H498.436V196.602C498.436 197.276 498.538 197.793 498.741 198.153C498.953 198.504 499.23 198.744 499.572 198.873C499.913 199.002 500.292 199.067 500.707 199.067C501.021 199.067 501.307 199.044 501.566 198.998C501.834 198.951 502.037 198.91 502.175 198.873L503.02 202.792C502.752 202.885 502.369 202.986 501.871 203.097C501.381 203.208 500.781 203.272 500.07 203.291C498.815 203.328 497.684 203.138 496.677 202.723C495.671 202.298 494.872 201.643 494.281 200.756C493.699 199.87 493.413 198.762 493.423 197.433V176.631ZM513.711 203.374C512.04 203.374 510.544 202.945 509.224 202.086C507.903 201.227 506.86 199.981 506.094 198.347C505.327 196.712 504.944 194.727 504.944 192.391C504.944 190.028 505.332 188.033 506.108 186.408C506.892 184.774 507.95 183.542 509.279 182.711C510.609 181.87 512.091 181.45 513.725 181.45C514.971 181.45 515.996 181.663 516.799 182.087C517.603 182.503 518.24 183.006 518.711 183.597C519.181 184.179 519.546 184.728 519.805 185.245H520.012V174.636H525.04V203H520.109V199.648H519.805C519.546 200.165 519.172 200.715 518.683 201.297C518.194 201.869 517.547 202.358 516.744 202.765C515.941 203.171 514.93 203.374 513.711 203.374ZM515.11 199.261C516.172 199.261 517.076 198.974 517.824 198.402C518.572 197.82 519.14 197.012 519.528 195.978C519.915 194.944 520.109 193.739 520.109 192.364C520.109 190.988 519.915 189.792 519.528 188.777C519.149 187.761 518.586 186.972 517.838 186.408C517.099 185.845 516.19 185.564 515.11 185.564C513.993 185.564 513.06 185.854 512.312 186.436C511.564 187.018 511.001 187.821 510.623 188.846C510.244 189.871 510.055 191.043 510.055 192.364C510.055 193.693 510.244 194.88 510.623 195.923C511.01 196.957 511.578 197.774 512.326 198.374C513.083 198.965 514.011 199.261 515.11 199.261ZM532.691 203.305C531.85 203.305 531.13 203.009 530.53 202.418C529.93 201.827 529.635 201.107 529.644 200.258C529.635 199.427 529.93 198.716 530.53 198.125C531.13 197.534 531.85 197.239 532.691 197.239C533.503 197.239 534.209 197.534 534.81 198.125C535.419 198.716 535.728 199.427 535.738 200.258C535.728 200.821 535.581 201.333 535.294 201.795C535.017 202.257 534.648 202.626 534.186 202.903C533.734 203.171 533.235 203.305 532.691 203.305Z" fill="#BA581C"/>
<path d="M0 11.0713H197V59.6075H0V11.0713Z" fill="#BA581C"/>
<path d="M0 155.776H197V203.487H0V155.776Z" fill="#F9EDD9"/>
<rect y="83.876" width="147.036" height="48.5362" fill="#C9740E"/>
</svg>
